<svg xmlns="http://www.w3.org/2000/svg" version="1.1" id="Capa_1" x="0" y="0" viewBox="0 0 228.354 228.354" xml:space="preserve" width="512" height="512"><g fill="#707070"><circle cx="168.421" cy="133.976" r="6.234"/><path d="M215.86 151.053l-4.16-5.428-7.51-12.458 4.613-24.11-23.853-12.279-6.744-25.887-26.754-.794-17.29-20.423L109.74 60.6 85.32 49.673 68.042 70.096l-26.733.793-6.7 25.888-23.764 12.277 5.197 26.241L0 156.423l15.762 20.754H208.253c1.88.954 4 1.504 6.252 1.504 7.648 0 13.848-6.2 13.848-13.848.001-7.191-5.481-13.099-12.493-13.78zm-79.284 10.821c-4.223-24.464 13.096-44.106 34.628-54.384l30.885 51.241a13.71 13.71 0 0 0-1.125 3.217l-64.388-.074z"/></g></svg>