<?xml version="1.0" encoding="iso-8859-1"?>
<!-- Generator: Adobe Illustrator 19.0.0, SVG Export Plug-In . SVG Version: 6.00 Build 0)  -->
<svg xmlns="http://www.w3.org/2000/svg" xmlns:xlink="http://www.w3.org/1999/xlink" version="1.1" id="Layer_1" x="0px" y="0px" viewBox="0 0 512 512" style="enable-background:new 0 0 512 512;" xml:space="preserve" width="512px" height="512px">
<g>
	<g>
		<path d="M349.669,135.563c7.537,16.849,11.743,35.5,11.743,55.121c0,24.096-6.328,46.737-17.399,66.364    c16.352,2.765,28.249,10.872,36.045,21.664c-35.537,2.049-63.822,31.599-63.822,67.641h30.118    c0-20.759,16.888-37.647,37.647-37.647h7.123c0.263,2.498,0.407,5.013,0.407,7.529c0,30.118-18.712,60.235-60.235,60.235    c0,0-45.176-15.059-60.235-15.059s-30.118,13.484-30.118,30.118c0,9.007,3.976,17.069,10.243,22.588    c-6.268,5.519-10.243,13.582-10.243,22.588c0,16.634,15.059,30.118,30.118,30.118s60.235-15.059,60.235-15.059h15.059    C437.835,451.765,512,377.6,512,286.118C512,195.744,439.621,136.975,349.669,135.563z" fill="#707070"/>
	</g>
</g>
<g>
	<g>
		<path d="M310.147,127.432c-92.764-26.36-234.853,38.215-234.853,38.215c10.065,18.117,22.027,32.977,35.174,45.177H97.882    c-37.365,0-67.765-30.399-67.765-67.765s30.399-67.765,67.765-67.765h188.235V45.176H97.882C43.91,45.176,0,89.086,0,143.059    s43.91,97.882,97.882,97.882h57.089c54.6,26.19,115.671,23.932,149.706,19.659c16.542-18.622,26.616-43.109,26.616-69.917    C331.294,166.968,323.418,145.062,310.147,127.432z M195.765,210.824c-8.317,0-15.059-6.742-15.059-15.059    c0-8.317,6.742-15.059,15.059-15.059s15.059,6.742,15.059,15.059S204.082,210.824,195.765,210.824z" fill="#707070"/>
	</g>
</g>
<g>
</g>
<g>
</g>
<g>
</g>
<g>
</g>
<g>
</g>
<g>
</g>
<g>
</g>
<g>
</g>
<g>
</g>
<g>
</g>
<g>
</g>
<g>
</g>
<g>
</g>
<g>
</g>
<g>
</g>
</svg>
