<?xml version="1.0" encoding="utf-8"?><!DOCTYPE svg PUBLIC "-//W3C//DTD SVG 1.1//EN" "http://www.w3.org/Graphics/SVG/1.1/DTD/svg11.dtd"><svg version="1.1" xmlns="http://www.w3.org/2000/svg" xmlns:xlink="http://www.w3.org/1999/xlink" x="0px" y="0px" viewBox="0 0 93.53 100" enable-background="new 0 0 93.53 100" xml:space="preserve"><g><path fill="#707070" d="M83.789,98.077c-0.012-0.131-0.032-0.248-0.072-0.374c-0.034-0.104-0.077-0.205-0.131-0.3
		c-0.028-0.057-0.032-0.117-0.067-0.174l-8.87-12.925C86.105,75.78,93.525,62.141,93.53,46.767C93.53,20.938,72.594,0.004,46.768,0
		C20.941,0.003,0.004,20.937,0,46.766C0.004,62.141,7.427,75.78,18.884,84.305l-8.865,12.925c-0.028,0.052-0.036,0.102-0.063,0.149
		c-0.062,0.11-0.112,0.22-0.146,0.345c-0.037,0.11-0.055,0.221-0.068,0.333c-0.006,0.063-0.039,0.112-0.039,0.176
		c0,0.054,0.028,0.102,0.033,0.157c0.012,0.12,0.036,0.23,0.073,0.345c0.031,0.108,0.068,0.21,0.12,0.312
		c0.049,0.095,0.115,0.18,0.182,0.266c0.08,0.097,0.155,0.185,0.25,0.264c0.04,0.031,0.062,0.083,0.109,0.11
		c0.065,0.045,0.136,0.064,0.209,0.103c0.059,0.03,0.118,0.062,0.182,0.087c0.189,0.072,0.387,0.12,0.589,0.12
		c0.008,0,0.015,0.005,0.022,0.005h70.587c0.064,0,0.116-0.028,0.176-0.037c0.118-0.011,0.217-0.032,0.329-0.064
		c0.119-0.035,0.229-0.082,0.333-0.145c0.052-0.028,0.112-0.03,0.16-0.068c0.047-0.033,0.074-0.08,0.116-0.117
		c0.089-0.071,0.165-0.148,0.229-0.243c0.076-0.095,0.148-0.189,0.206-0.293c0.045-0.09,0.077-0.183,0.108-0.279
		c0.04-0.129,0.066-0.25,0.073-0.379c0.005-0.052,0.031-0.09,0.031-0.142C83.822,98.176,83.795,98.127,83.789,98.077z M71.64,79.914
		l-2.343-3.406c3.353-1.386,6.815-3.392,10.19-6.435c0.225-0.286,1.018-0.529,1.978-0.652C78.818,73.464,75.496,77.021,71.64,79.914
		z M45.742,51.374c0.329,0.074,0.67,0.121,1.026,0.121c0.35,0,0.693-0.045,1.023-0.117l2.664,3.884
		c-1.134,0.488-2.377,0.772-3.687,0.772c-1.316,0-2.559-0.284-3.69-0.772L45.742,51.374z M50.705,49.383
		c0.495-0.749,0.792-1.647,0.792-2.619c0-2.614-2.116-4.732-4.728-4.732c-2.614,0-4.736,2.119-4.736,4.732
		c0,0.972,0.296,1.866,0.795,2.619l-2.661,3.881c-1.651-1.674-2.668-3.966-2.669-6.5c0.003-5.124,4.145-9.264,9.271-9.273
		c5.119,0.009,9.258,4.149,9.267,9.273c-0.004,2.534-1.027,4.826-2.673,6.5L50.705,49.383z M46.768,59.563
		c2.052,0,3.986-0.495,5.705-1.352l1.469,2.139c-3.945,1.031-8.699,2.389-12.699,4.334l0,0c-2.231,1.104-5.778,2.712-6.844,5.963
		c-0.046,0.041-0.085,0.076-0.142,0.123c-0.465,0.376-1.181,0.863-2.194,1.255c-0.127,0.043-0.234,0.09-0.365,0.174
		c-0.091,0.102-0.408,0.16-0.487,0.836c0.271,1.118,0.806,0.852,0.896,0.957c0.184,0.028,0.353,0.034,0.544,0.034
		c0.457,0,1.027-0.054,1.583-0.14c0.144,0.729,0.395,1.486,0.78,2.29c3.012,6.33,6.894,5.727,7.809,6.942
		c0.159,0.172,0.209,0.31,0.217,0.579c0.018,0.512-0.387,1.395-0.855,2.07c-0.458,0.684-0.922,1.165-0.922,1.168
		c-0.232,0.241-0.299,0.583-0.204,0.888c-5.908-0.822-11.414-2.882-16.253-5.916l16.249-23.696
		C42.778,59.068,44.711,59.563,46.768,59.563z M46.375,85.835c1.839-1.401,3.853-3.014,4.237-5.11
		c3.483-1.024,9.032-1.112,15.243-3.003l2.867,4.187c-6.364,3.992-13.887,6.306-21.955,6.326c-1.309-0.005-2.593-0.077-3.869-0.191
		C43.638,87.63,44.987,86.84,46.375,85.835z M5.299,46.766C5.334,23.864,23.863,5.338,46.768,5.297
		c22.901,0.041,41.425,18.567,41.468,41.469c-0.017,7.182-1.848,13.938-5.062,19.822c-0.352,0.072-0.714,0.162-1.108,0.298
		c-0.26-0.14-1.055-0.982-1.572-2.034c-0.622-1.151-1.08-2.582-1.073-3.56c0-0.429,0.088-0.746,0.194-0.924
		c0.505-0.882,2.189-2.672,3.722-4.518c1.514-1.894,3.005-3.798,3.066-5.772c0-0.404-0.081-0.813-0.264-1.191
		c-0.114-0.237-0.322-0.411-0.57-0.476c-0.05-0.013-2.765-0.758-6.304-0.758c-2.436,0-5.267,0.345-7.897,1.576
		c-0.42,0.024-1.472,0.084-2.55,0.249c-0.697,0.115-1.404,0.257-2.017,0.504c-0.548,0.24-1.312,0.577-1.389,1.61
		c0.014,0.413,0.166,0.735,0.387,1.009c-0.255,0.509-0.673,1.301-1.205,2.153c-0.892,1.438-2.16,3.001-3.195,3.474
		c-0.69,0.345-2.057,0.732-3.82,1.186l-2.198-3.204c2.564-2.336,4.184-5.696,4.184-9.441c0-7.072-5.731-12.803-12.796-12.806
		c-7.075,0.003-12.802,5.734-12.802,12.806c0,3.746,1.614,7.105,4.178,9.441L21.891,79.914C11.831,72.355,5.32,60.325,5.299,46.766z
		 M46.768,93.533c9.184-0.007,17.742-2.664,24.965-7.234l6.971,10.167H14.825l6.976-10.172C29.022,90.87,37.58,93.526,46.768,93.533
		z"></path></g></svg>