<svg xmlns="http://www.w3.org/2000/svg" version="1.1" id="Capa_1" x="0" y="0" viewBox="0 0 216.239 216.239" xml:space="preserve" width="512" height="512"><path d="M160.331 62.553s-21.033-41.208-30.251 1.863c-13.062 6.647-34.009-3.543-59.024-1.767C62.438 63.263.021 61.861 0 117.211c-.021 35.369 23.601 53.538 38.732 54.188 3.493.142 17.06 0 17.935-.047 4.646-.214 9.679-.433 9.738-2.874.12-5.127-19.702-7.227-21.256-8.336-1.544-1.11-1.544-7.903 7.528-5.468 15.716 4.43 42.653 1.555 48.85-.215 6.197-1.779 10.261 7.375 13.801 12.249 3.542 4.872 9.075 4.645 9.075 4.645h23.472c4.645 0 3.098-5.21-7.086-7.421-10.184-2.214-4.524-7.364 0-11.833 4.166-4.115 14.73-15.072 22.576-16.385 52.024-8.853 51.314-40.956 50.648-45.823 14.05-13.246-42.615-26.665-53.682-27.338z" fill="#707070"/></svg>