<svg version="1.1" xmlns="http://www.w3.org/2000/svg" x="0" y="0" viewBox="0 0 93.53 100" xml:space="preserve"><path fill="#707070" d="M83.789 98.077a1.633 1.633 0 0 0-.203-.674c-.028-.057-.032-.117-.067-.174l-8.87-12.925C86.105 75.78 93.525 62.141 93.53 46.767 93.53 20.938 72.594.004 46.768 0 20.941.003.004 20.937 0 46.766.004 62.141 7.427 75.78 18.884 84.305L10.019 97.23c-.028.052-.036.102-.063.149-.062.11-.112.22-.146.345-.037.11-.055.221-.068.333-.006.063-.039.112-.039.176 0 .054.028.102.033.157.012.12.036.23.073.345.031.108.068.21.12.312.049.095.115.18.182.266.08.097.155.185.25.264.04.031.062.083.109.11.065.045.136.064.209.103.059.03.118.062.182.087.189.072.387.12.589.12.008 0 .015.005.022.005h70.587c.064 0 .116-.028.176-.037.118-.011.217-.032.329-.064.119-.035.229-.082.333-.145.052-.028.112-.03.16-.068.047-.033.074-.08.116-.117.089-.071.165-.148.229-.243.076-.095.148-.189.206-.293a1.963 1.963 0 0 0 .181-.658c.005-.052.031-.09.031-.142.002-.059-.025-.108-.031-.158zM71.64 79.914l-2.343-3.406a35.001 35.001 0 0 0 10.19-6.435c.225-.286 1.018-.529 1.978-.652a41.593 41.593 0 0 1-9.825 10.493zm-25.898-28.54c.329.074.67.121 1.026.121.35 0 .693-.045 1.023-.117l2.664 3.884a9.302 9.302 0 0 1-3.687.772 9.283 9.283 0 0 1-3.69-.772l2.664-3.888zm4.963-1.991a4.73 4.73 0 0 0-3.936-7.351 4.735 4.735 0 0 0-4.736 4.732c0 .972.296 1.866.795 2.619l-2.661 3.881a9.227 9.227 0 0 1-2.669-6.5 9.274 9.274 0 0 1 9.271-9.273 9.28 9.28 0 0 1 9.267 9.273 9.264 9.264 0 0 1-2.673 6.5l-2.658-3.881zm-3.937 10.18a12.75 12.75 0 0 0 5.705-1.352l1.469 2.139c-3.945 1.031-8.699 2.389-12.699 4.334-2.231 1.104-5.778 2.712-6.844 5.963-.046.041-.085.076-.142.123a8.128 8.128 0 0 1-2.194 1.255c-.127.043-.234.09-.365.174-.091.102-.408.16-.487.836.271 1.118.806.852.896.957.184.028.353.034.544.034.457 0 1.027-.054 1.583-.14.144.729.395 1.486.78 2.29 3.012 6.33 6.894 5.727 7.809 6.942.159.172.209.31.217.579.018.512-.387 1.395-.855 2.07-.458.684-.922 1.165-.922 1.168a.893.893 0 0 0-.204.888 41.252 41.252 0 0 1-16.253-5.916l16.249-23.696a12.78 12.78 0 0 0 5.713 1.352zm-.393 26.272c1.839-1.401 3.853-3.014 4.237-5.11 3.483-1.024 9.032-1.112 15.243-3.003l2.867 4.187a41.369 41.369 0 0 1-21.955 6.326 45.288 45.288 0 0 1-3.869-.191 36.478 36.478 0 0 0 3.477-2.209zM5.299 46.766C5.334 23.864 23.863 5.338 46.768 5.297c22.901.041 41.425 18.567 41.468 41.469-.017 7.182-1.848 13.938-5.062 19.822a8.62 8.62 0 0 0-1.108.298c-.26-.14-1.055-.982-1.572-2.034-.622-1.151-1.08-2.582-1.073-3.56 0-.429.088-.746.194-.924.505-.882 2.189-2.672 3.722-4.518 1.514-1.894 3.005-3.798 3.066-5.772 0-.404-.081-.813-.264-1.191a.884.884 0 0 0-.57-.476c-.05-.013-2.765-.758-6.304-.758-2.436 0-5.267.345-7.897 1.576-.42.024-1.472.084-2.55.249-.697.115-1.404.257-2.017.504-.548.24-1.312.577-1.389 1.61.014.413.166.735.387 1.009a26.885 26.885 0 0 1-1.205 2.153c-.892 1.438-2.16 3.001-3.195 3.474-.69.345-2.057.732-3.82 1.186l-2.198-3.204c2.564-2.336 4.184-5.696 4.184-9.441 0-7.072-5.731-12.803-12.796-12.806-7.075.003-12.802 5.734-12.802 12.806a12.73 12.73 0 0 0 4.178 9.441L21.891 79.914C11.831 72.355 5.32 60.325 5.299 46.766zm41.469 46.767a46.603 46.603 0 0 0 24.965-7.234l6.971 10.167H14.825l6.976-10.172a46.546 46.546 0 0 0 24.967 7.239z"/></svg>