<svg xmlns="http://www.w3.org/2000/svg" version="1.1" id="Capa_1" x="0" y="0" viewBox="0 0 345.878 345.878" xml:space="preserve" width="512" height="512"><path d="M286.841 321.622c.424-.48.567-1.08.405-1.688-.883-3.313-12.812-7.684-37.926-16.19-16.169-5.477-32.887-11.139-38.713-15.033-2.266-1.514-9.62-10.472-15.528-17.669-4.73-5.762-7.965-9.679-9.669-11.376.547-.13 1.259-.274 1.958-.416 5.543-1.123 18.525-3.752 35.926-14.268 21.542-13.02 42.952-33.75 63.635-61.616 43.162-58.151 38.604-88.664 36.657-101.693-.421-2.818-.726-4.854-.374-5.961 1.235-3.894 1.423-5.914.648-6.972-.348-.475-.884-.736-1.509-.736-.989 0-2.089.627-3.253 1.292-.521.297-1.255.716-1.703.871.003-.507.205-1.818 1.44-5.052 3.045-7.978 2.791-9.385 2.27-10.142a1.357 1.357 0 0 0-1.133-.593c-1.241 0-2.843 1.661-5.917 5.561 5.26-13.727 7.878-21.567 6.684-23.656-.267-.467-.706-.735-1.204-.735-1.52 0-3.032 2.396-7.342 11.903l.224-.992c5.143-22.829 5.517-26.983 4.028-27.876a1.29 1.29 0 0 0-.666-.186c-1.619 0-2.812 2.66-6.712 14.978l-.358 1.132.213-1.306c1.357-8.312 3.409-20.873 3.169-29.05-.069-2.355-.232-4.153-1.617-4.153-1.533 0-2.21 1.603-6.532 20.006-1.454 6.191-2.957 12.593-4.274 17.134-3.724 12.832-13.196 36.067-20.3 47.955-14.9 24.935-18.822 29.799-71.322 73.48-24.925 20.737-56.261 42.942-60.334 44.761-2.093-2.251-11.898-19.777-16.722-36.056-4.182-14.113-14.883-30.277-21.275-39.935-2.14-3.232-3.83-5.785-4.318-6.859-1.308-2.878-4.151-4.621-6.661-6.158-1.506-.923-2.929-1.794-3.634-2.708-1.326-1.72-2.224-4.709-3.175-7.875-1.522-5.068-3.247-10.813-7.406-13.684-1.227-.847-2.284-1.258-3.234-1.258-1.371 0-2.221.822-2.903 1.482-.637.615-1.026.964-1.631.964-.375 0-.838-.136-1.373-.404-2.321-1.161-5.025-9.227-6.999-15.117-2.383-7.11-3.417-9.85-4.836-10.408a2.07 2.07 0 0 0-.76-.147c-1.967 0-3.004 2.709-4.007 5.33-.267.696-.632 1.649-.927 2.224-.813-1.292-2.233-4.725-3.313-7.334-3.062-7.399-4.467-10.443-6.054-10.747l-.242-.023c-.759 0-2.469-.001-5.196 15.109a450.257 450.257 0 0 1-1.666-4.683c-5.559-15.787-7.246-19.417-9.027-19.417l-.197.015c-1.904.296-2.402 3.675-3.238 15.998-.258 3.803-.592 8.727-1.052 11.032l-.063-.179c-1.234-3.563-2.203-4.952-3.458-4.952-1.281 0-3.216 0-3.216 19.859 0 15.128 7.035 56.931 15.053 76.047 7.168 17.094 8.654 18.573 11.617 21.52l.361.36a10.148 10.148 0 0 0 1.699 1.391 33.104 33.104 0 0 0-2.358 2.635c-3.167 3.898-4.302 5.501-3.645 6.88.515 1.083 1.888 1.232 3.296 1.232.913 0 2.072-.07 4-.241l.19-.017c4.858-.435 7.915-.597 15.337 8.267 6.164 7.362 8.539 23.675 10.446 36.783.39 2.678.766 5.258 1.154 7.658 2.401 14.809 4.444 20.9 28.264 39.955 18.113 14.49 47.079 20.204 66.246 23.984 3.752.74 6.999 1.38 9.675 1.994 7.145 3.25 15.569 7.913 24.488 12.848 2.464 1.364 4.948 2.739 7.429 4.096 16.832 9.21 33.141 12.553 39.996 12.553 1.348 0 2.267-.132 2.809-.403.085-.042.354-.142 1.012-.142 1.115 0 2.67.275 4.174.541 1.552.274 3.018.533 4.15.533 2.317 0 2.567-1.277 2.567-1.827 0-.063.007-.099.004-.105.223-.175 1.254-.233 2.01-.276 1.758-.099 4.164-.235 6.798-1.451 2.639-1.218 2.892-2.396 2.948-3.809.041-1.051.089-2.242 3.8-4.459 1.597-.954 2.458-1.889 2.709-2.944.309-1.298-.368-2.367-1.023-3.4-1.073-1.69-1.998-3.149.506-5.986z" fill="#707070"/></svg>