<svg xmlns="http://www.w3.org/2000/svg" version="1.1" id="Capa_1" x="0" y="0" width="512" height="512" viewBox="0 0 47.407 47.407" xml:space="preserve"><g fill="#707070"><path d="M47.074 4.459C42.953.338 35.207.338 27.86 4.116c-.266 3.601 1.084 7.454 4.011 10.381 2.299 2.298 5.169 3.619 8.041 3.958 5.59-6.747 8.53-12.629 7.162-13.996zM39.309 7.06a1.62 1.62 0 1 1-2.292-2.29 1.62 1.62 0 0 1 2.292 2.29z"/><path d="M25.196 5.666a31.58 31.58 0 0 0-1.61 1.125l-1.26-.664a2.846 2.846 0 0 0-3.328.501l-8.862 8.862a2.85 2.85 0 0 0 .699 4.527l2.01 1.053c-2.014 4.696-3.107 9.297-3.405 12.211l-8.75 3.01a1.023 1.023 0 0 0-.103 1.893l3.816 1.797a3.55 3.55 0 0 1 1.698 1.698l1.797 3.815a1.026 1.026 0 0 0 1.894-.102l3.013-8.764c4.108-.677 11.234-3.817 17.423-8.546l.693 2.14c.125.387.439.677.835.772.396.096.809-.025 1.098-.312l.741-.742c.57-.571.921-1.327.977-2.133l.262-3.762a87.222 87.222 0 0 0 3.074-3.26c-2.855-.662-5.621-2.139-7.904-4.422-3.023-3.024-4.64-6.894-4.808-10.697z"/></g></svg>