<svg xmlns="http://www.w3.org/2000/svg" version="1.1" id="Capa_1" x="0" y="0" width="512" height="512" viewBox="0 0 448.824 448.824" xml:space="preserve"><path fill="#707070" d="M444.619 113.301l-32.256-19.037-26.633-26.541-12.873-46.493-9.753-2.734-86.166 99.115-36.348 23.453-35.846 5.069-152.455-.143-17.936-12.996L20.508 80.35 4.992 74.148 0 83.861l3.369 34.012 18.955 51.32.109.803-17.574 50.139 11.645 62.027-1.924 40.822-6.225 21.907-.386 58.908 11.634 26.506 29.217.023 10.229-9.629-16.248-17.533-4.75-29.465 13.408-41.64 3.982-6.129 1.522.908.732 38.32 14.526 44.846 10.691 15.906 31.699.108 5.301-10.274-20.167-21.667-2.103-50.28 19.838-54.762 13.813-22.648 19.709-2.645 108.314 20.238 4.528 16.788-10.403 101.381 14.336 23.93 24.26-.002 13.195-9.725-2.955-14.14-16.25-8.25 17.616-88.112 7.259 102.767 21.135 21.709 21.875-.017 7.938-12.899-14.303-11.397-7.285-14.201 14.197-229.916 16.133-10.92 12.322-.525 29.918 9.348 35.992-15.722z"/></svg>